<?xml version="1.0" encoding="utf-8"?>
<svg version="1.1" xmlns:xlink="http://www.w3.org/1999/xlink" width="335px" height="248px" xmlns="http://www.w3.org/2000/svg">
  <g transform="matrix(1 0 0 1 -20 -68 )">
    <path d="M 20.5 282.055172413793  C 20.5 282.055172413793  20.5 78  20.5 78  C 20.5 72.7532948766075  24.7532948766075 68.5  30 68.5  C 30 68.5  345 68.5  345 68.5  C 350.246705123393 68.5  354.5 72.7532948766075  354.5 78  C 354.5 78  354.5 282.055172413793  354.5 282.055172413793  C 354.5 287.301877537186  350.246705123393 291.555172413793  345 291.555172413793  C 345 291.555172413793  209.766157554602 291.555172413793  209.766157554602 291.555172413793  C 209.766157554602 291.555172413793  189.990734501926 315.231127185824  189.990734501926 315.231127185824  C 189.990734501926 315.231127185824  169.226540296616 291.555172413793  169.226540296616 291.555172413793  C 169.226540296616 291.555172413793  30 291.555172413793  30 291.555172413793  C 24.7532948766075 291.555172413793  20.5 287.301877537186  20.5 282.055172413793  Z " fill-rule="nonzero" fill="#ffffff" stroke="none" />
    <path d="M 20 282.055172413793  C 20 282.055172413793  20 78  20 78  C 20 72.4771525016921  24.4771525016921 68  30 68  C 30 68  345 68  345 68  C 350.522847498308 68  355 72.4771525016921  355 78  C 355 78  355 282.055172413793  355 282.055172413793  C 355 287.578019912101  350.522847498308 292.055172413793  345 292.055172413793  C 345 292.055172413793  210 292.055172413793  210 292.055172413793  C 210 292.055172413793  190 316  190 316  C 190 316  169 292.055172413793  169 292.055172413793  C 169 292.055172413793  30 292.055172413793  30 292.055172413793  C 24.4771525016921 292.055172413793  20 287.578019912101  20 282.055172413793  Z M 21 282.055172413793  C 21 287.02573516227  25.0294372515229 291.055172413793  30 291.055172413793  C 30 291.055172413793  169.453080593233 291.055172413793  169.453080593233 291.055172413793  C 169.453080593233 291.055172413793  189.981469003852 314.462254371648  189.981469003852 314.462254371648  C 189.981469003852 314.462254371648  209.532315109203 291.055172413793  209.532315109203 291.055172413793  C 209.532315109203 291.055172413793  345 291.055172413793  345 291.055172413793  C 349.970562748477 291.055172413793  354 287.02573516227  354 282.055172413793  C 354 282.055172413793  354 78  354 78  C 354 73.0294372515229  349.970562748477 69  345 69  C 345 69  30 69  30 69  C 25.0294372515229 69  21 73.0294372515229  21 78  C 21 78  21 282.055172413793  21 282.055172413793  Z " fill-rule="nonzero" fill="#e4e4e4" stroke="none" />
  </g>
</svg>