<svg t="1600345654057" class="icon" viewBox="0 0 1024 1024" version="1.1" xmlns="http://www.w3.org/2000/svg" p-id="11393" width="200" height="200"><path d="M435.2 1018.2656C188.8512 981.248 0 768.6656 0 512 0 229.2224 229.2224 0 512 0s512 229.2224 512 512c0 256.6656-188.8512 469.2224-435.2 506.2656V665.6h51.2a76.8 76.8 0 0 0 75.52-90.9056c0.8448-3.712 1.28-7.552 1.28-11.4944V256a51.2 51.2 0 1 0-102.4 0v256h-51.2V256a51.2 51.2 0 1 0-102.4 0v256h-51.2V256a51.2 51.2 0 1 0-102.4 0v307.2c0 3.9424 0.4352 7.7824 1.28 11.4944A76.8 76.8 0 0 0 384 665.6h51.2v352.6656z" p-id="11394" fill="#ffffff"></path></svg>