<svg t="1600345901616" class="icon" viewBox="0 0 1024 1024" version="1.1" xmlns="http://www.w3.org/2000/svg" p-id="12483" width="200" height="200"><path d="M515.004939 60.862159c-247.512187 0-448.161043 200.648856-448.161043 448.161043 0 247.512187 200.648856 448.16002 448.161043 448.16002s448.15695-200.648856 448.15695-448.161043S762.517125 60.862159 515.004939 60.862159zM671.888012 287.793612c23.076578 0 41.818431 28.070312 41.818431 62.746066 0 34.657334-18.744923 62.723553-41.818431 62.723553-23.131837 0-41.84299-28.039613-41.815361-62.723553C630.071627 315.862901 648.753105 287.793612 671.888012 287.793612zM337.224929 287.793612c23.12672 0 41.84299 28.070312 41.84299 62.746066 0 34.657334-18.71627 62.723553-41.84299 62.723553-23.073508 0-41.815361-28.039613-41.815361-62.723553C295.408545 315.862901 314.151421 287.793612 337.224929 287.793612zM511.698636 796.559964c-220.016972 0-235.991806-197.49298-235.991806-218.401172 0-20.912285 126.030391-41.819454 237.786685-41.819454 126.655631 0 240.839207 22.874987 240.839207 41.819454C754.331699 597.129866 710.43698 796.559964 511.698636 796.559964z" p-id="12484" fill="#ffffff"></path></svg>