<svg t="1600346132834" class="icon" viewBox="0 0 1024 1024" version="1.1" xmlns="http://www.w3.org/2000/svg" p-id="20956" width="200" height="200"><path d="M514.244622 60.965513c-246.838851 0-446.802092 200.046129-446.802092 446.857351 0 246.812245 199.963241 446.775486 446.802092 446.775486 246.840898 0 447.025173-199.963241 447.025173-446.775486C961.269795 261.012665 761.08552 60.965513 514.244622 60.965513zM867.242282 341.278757c-1.213641 0.221034-2.316765 0.331551-3.088338 0.331551 0.550539 2.260483 1.544169 6.121418 2.536776 11.056823 2.316765 13.869892 4.027733 35.900651-6.948249 52.058656-15.441691 22.665209-89.391936 107.62009-99.097996 118.842689 0.384763 0.468674 0.604774 1.047866 0.715291 1.791809 0.607844 4.329609-0.88209 13.373589-13.068643 37.500079-19.137873 37.693484-79.909981 90.966805-100.588953 104.09173-7.390317 4.52199-26.249851 9.265014-47.815005 13.123902-29.17139 5.294586-62.977333 8.714476-79.301114 5.735631-5.40408-0.88209-9.374508-2.095731-10.368138-5.955642-0.221034-1.213641 0.110517-2.647293 0.827855-3.859911 4.025687-6.838755 12.187577-9.92607 22.445198-11.80179 19.521612-3.308349 47.372937-2.095731 71.969125-6.506181 3.692089-0.772596 7.222495-1.433652 10.918677-2.536776 23.162536-6.066159 72.352865-59.006905 95.515401-87.684038 2.700505-3.338025 4.963035-6.231935 7.057743-8.851599-0.661056 0.579191-1.38044 1.186012-2.041496 1.874697-45.604664 46.793746-117.242238 27.602661-198.750623 90.359984-25.423019 19.632129-51.122331 29.447682-73.511247 33.308617-18.308995 3.308349-34.19173 2.647293-45.992497 0-11.691273-2.867304-19.301602-7.278777-20.735253-13.235442-0.717338-4.743024 3.418866-8.381901 10.698666-10.9197 38.492686-12.352329 79.081103-23.050995 96.563266-47.536666 14.117532-19.300578 69.595055-47.427172 97.610108-60.826344-7.499811 2.01182-16.874319 4.768607-27.132964 8.326643-24.595164 8.382924-53.712319 20.956288-72.242348 37.610596-24.209378 21.618367-62.371536 36.176944-98.657974 42.794665-20.845771 3.749394-41.250496 4.631484-58.124815 2.64627-26.249851-3.197832-44.007283-13.344936-46.213531-23.49204-0.992607-6.176676 4.301979-10.477632 14.007015-12.353352 3.970428-0.550539 8.823969-0.88209 14.449084-0.771573 18.860557 0.330528 43.345204-1.213641 67.775616-5.51562 35.239596-6.287193 69.981864-18.749016 84.816734-39.319517 25.478278-34.770921 103.676267-62.868863 111.287619-65.62565 10.918677-18.447141 20.461007-29.393447 24.925692-34.081213-25.477254-1.571798-46.599318-0.35918-64.412009 2.756787-81.120552 14.475689-92.812849 70.975495-135.165446 106.820887-20.624736 17.204847-34.522258 23.934109-44.1178 25.698289-14.890128 2.756787-19.191084-7.058766-19.191084-7.390317-0.330528-0.88209 0-1.765203 0.827855-2.095731 22.665209-11.470239 46.433542-36.260855 64.246233-58.180074 17.866926-22.031782 29.889751-41.084721 29.889751-41.084721 19.853164-32.67519 52.169173-47.261397 83.823104-52.775994 45.3867-8.079002 89.340771 1.902326 94.578052 3.115967 41.139979-14.83487 100.534717-77.095889 143.93518-109.632933 17.536398-13.263072 33.254382-19.026332 45.718251-21.314445 13.015432-2.344395 22.610974-0.606821 27.132964 0.551562-0.109494-0.082888-0.109494-0.221034-0.109494-0.330528-0.442068-2.785439-0.99363-6.728238-0.442068-10.478655 0.442068-3.612271 2.316765-7.499811 6.838755-8.217149 2.426259-0.496304 5.458315 0.138146 9.154497 1.709945 13.455453 6.369058 35.845393 29.751604 38.104853 40.009226 0 0.716314 0 1.461281 0 2.177596C877.225657 338.852498 871.379509 340.562443 867.242282 341.278757z" p-id="20957" fill="#ffffff"></path><path d="M792.408923 408.476205c-12.68388-25.312502-28.291346-40.009226-40.755216-48.418756l0 0c-12.517081-8.43716-21.508873-10.477632-21.508873-10.477632l0 0c-0.992607-0.220011-1.486864-1.213641-1.323135-2.095731l0 0c0.166799-0.937348 1.213641-1.51654 2.153036-1.433652l0 0c0.220011 0.138146 38.546921 9.182127 64.522526 60.882626l0 0c0.384763 0.826831 0 1.791809-0.771573 2.288113l0 0c-0.110517 0.110517-0.277316 0.110517-0.442068 0.110517l0 0C793.512047 409.468812 792.850991 409.220149 792.408923 408.476205L792.408923 408.476205z" p-id="20958" fill="#ffffff"></path><path d="M746.526943 415.59023c-10.535961-15.799848-21.675672-25.587771-30.111808-31.43392l0 0c-8.602935-5.818519-14.228049-7.719822-14.228049-7.719822l0 0c-0.938372-0.35918-1.432629-1.323135-1.102101-2.15099l0 0c0.220011-0.992607 1.156336-1.433652 2.148943-1.12973l0 0c0.277316 0 24.432459 8.217149 46.160319 40.505529l0 0c0.605797 0.744967 0.330528 1.791809-0.497327 2.426259l0 0c-0.163729 0.082888-0.384763 0.221034-0.605797 0.221034l0 0C747.630067 416.417061 746.967988 416.169421 746.526943 415.59023L746.526943 415.59023z" p-id="20959" fill="#ffffff"></path><path d="M741.672378 448.954105c-5.514597-12.518105-20.514219-26.8843-33.860179-37.968753l0 0c-13.512758-11.056823-25.53456-18.777669-25.53456-18.777669l0 0c-0.715291-0.468674-0.992607-1.682315-0.494257-2.426259l0 0c0.494257-0.799202 1.598404-1.047866 2.426259-0.496304l0 0c0.110517 0.165776 48.418756 31.240515 60.71685 58.207703l0 0c0.38681 0.964978 0 1.958608-0.937348 2.427282l0 0c-0.164752 0-0.276293 0-0.385786 0.138146l0 0C742.941278 450.166723 742.059188 449.670419 741.672378 448.954105L741.672378 448.954105z" p-id="20960" fill="#ffffff"></path><path d="M698.216657 483.917408c-11.250228-23.382547-25.645077-37.830607-37.116339-46.544059l0 0c-11.633968-8.630564-20.12741-11.305487-20.12741-11.305487l0 0c-0.992607-0.358157-1.432629-1.350764-1.048889-2.178619l0 0c0.221034-0.937348 1.160429-1.433652 2.153036-1.157359l0 0c0.221034 0.082888 36.119639 11.746532 59.338457 59.586097l0 0c0.330528 0.992607 0 1.957585-0.772596 2.426259l0 0c-0.330528 0-0.387833 0.109494-0.497327 0.109494l0 0C699.372993 484.992903 698.548208 484.607116 698.216657 483.917408L698.216657 483.917408z" p-id="20961" fill="#ffffff"></path><path d="M650.570497 457.171254c-3.807722-8.79634-10.809183-14.255679-16.932648-17.508769l0 0c-5.955642-3.088338-10.751878-3.942799-10.918677-3.942799l0 0 0.166799 0c-0.939395-0.248663-1.600451-1.103124-1.433652-2.040473l0 0c0.109494-0.992607 1.045819-1.599428 2.095731-1.461281l0 0c0.109494 0.082888 21.561062 3.859911 30.331819 23.602557l0 0c0.274246 0.88209 0 1.929955-0.99363 2.288113l0 0c-0.166799 0-0.220011 0.138146-0.330528 0.138146l0 0C651.783115 458.356242 650.954237 457.970456 650.570497 457.171254L650.570497 457.171254z" p-id="20962" fill="#ffffff"></path><path d="M405.273768 598.348624c-15.165398-2.756787-33.970696-3.088338-48.63979-9.92607l0 0c-13.897521-6.838755-21.010523-20.515243-35.183314-23.823592l0 0c-7.610328-1.737574-15.661701-1.267876-24.15412 0.221034l0 0c-14.062274 2.426259-28.897144 8.051373-43.014676 10.698666l0 0c-3.197832 0.441045-6.341429 0.881067-9.375531 1.102101l0 0c-0.992607 0.110517-1.76418-0.661056-1.76418-1.544169l0 0c-0.110517-0.992607 0.551562-1.874697 1.544169-1.985214l0 0c2.922563-0.109494 5.900384-0.441045 9.04398-1.102101l0 0c13.622252-2.426259 28.456099-7.969509 43.014676-10.589173l0 0c8.658194-1.599428 17.20587-2.095731 25.367761-0.164752l0 0c16.213263 3.91517 23.437805 18.253736 35.95591 23.87885l0 0c13.621229 6.506181 32.31601 6.948249 47.977711 9.815553l0 0 0 0c0.937348 0.221034 1.544169 0.99363 1.323135 2.095731l0 0c-0.165776 0.662079-0.771573 1.214664-1.323135 1.324158l0 0C405.770072 598.348624 405.493779 598.348624 405.273768 598.348624L405.273768 598.348624z" p-id="20963" fill="#ffffff"></path><path d="M373.122511 610.591459c-17.150612-1.985214-31.710212-13.455453-47.481408-16.32378l0 0c-4.797259-1.102101-8.547677-1.102101-11.80179-0.441045l0 0c-5.625114 0.992607-10.588149 3.970428-18.639522 6.838755l0 0c-2.647293 0.992607-5.40408 1.765203-8.106632 2.205225l0 0c-19.026332 3.418866-39.265282-3.088338-56.139601 0l0 0c-8.327666 1.433652-15.827477 4.964058-22.333658 13.345959l0 0c-0.551562 0.771573-1.654686 0.88209-2.481518 0.220011l0 0c-0.716314-0.550539-0.826831-1.76418-0.275269-2.426259l0 0c7.058766-8.822946 15.439644-13.014408 24.484647-14.44806l0 0c18.08796-3.418866 38.271652 3.198855 56.139601 0l0 0c2.536776-0.442068 5.073552-1.213641 7.499811-2.095731l0 0c7.830339-2.756787 12.739139-5.846148 19.301602-6.948249l0 0c3.695159-0.772596 7.720845-0.772596 13.069667 0.330528l0 0c16.875343 3.418866 31.268144 14.669094 47.095621 16.213263l0 0c1.047866 0.109494 1.599428 0.992607 1.599428 1.985214l0 0c-0.110517 0.771573-0.772596 1.323135-1.433652 1.544169l0 0C373.343545 610.591459 373.233028 610.591459 373.122511 610.591459L373.122511 610.591459z" p-id="20964" fill="#ffffff"></path><path d="M148.619364 631.43723c-2.64627 0.550539-5.293563 1.323135-7.776104 2.426259l0 0c-0.992607 0.330528-1.929955 0-2.481518-0.772596l0 0c-0.330528-0.88209 0-1.984191 1.047866-2.316765l0 0c2.922563-1.213641 5.79089-2.205225 8.658194-2.64627l0 0c26.746154-4.523013 51.3976 18.418488 75.661214 13.787004l0 0c2.15099-0.330528 4.411473-0.99363 6.728238-1.985214l0 0c12.68388-4.852518 23.988344-14.559601 37.830607-19.521612l0 0c10.257621-3.750417 21.176298-4.964058 30.330796-9.375531l0 0c0.88209-0.330528 1.874697 0 2.315742 0.88209l0 0c0.385786 0.772596 0 1.87572-0.826831 2.316765l0 0c-9.870812 4.52199-20.845771 5.846148-30.607088 9.374508l0 0c-13.124925 4.743024-24.485671 14.338566-37.72009 19.633153l0 0c-2.481518 0.992607-5.073552 1.654686-7.444553 2.206248l0 0C197.700199 649.855718 172.994518 626.804722 148.619364 631.43723L148.619364 631.43723z" p-id="20965" fill="#ffffff"></path><path d="M228.029972 668.384723c-15.550161-2.867304-53.381791-13.56597-74.006528-9.705036l0 0c-5.846148 0.992607-10.202363 3.198855-12.353352 6.617721l0 0 0 0c-0.496304 0.772596-1.544169 0.88209-2.426259 0.441045l0 0c-0.662079-0.441045-0.938372-1.544169-0.496304-2.426259l0 0c3.03308-4.52199 8.381901-6.948249 14.613836-8.16189l0 0c22.279423-3.750417 60.000536 7.058766 75.275427 9.705036l0 0c8.989745 1.765203 16.379039 4.080945 23.658839 2.977821l0 0c2.260483-0.441045 4.52199-1.213641 6.948249-2.536776l0 0c7.2798-3.970428 10.368138-12.132318 18.695804-17.316387l0 0c5.073552-2.977821 10.753925-4.743024 16.59905-5.734608l0 0c14.613836-2.536776 30.882358-0.992607 44.337811-3.6399l0 0c6.287193-0.99363 11.912307-2.977821 16.654308-6.287193l0 0c0.717338-0.551562 1.765203-0.442068 2.426259 0.330528l0 0c0.606821 0.771573 0.330528 1.874697-0.385786 2.426259l0 0c-5.349845 3.749394-11.416004 5.845125-18.08796 7.057743l0 0c-14.063297 2.536776-30.331819 1.103124-44.283576 3.640923l0 0c-5.734608 0.88209-10.918677 2.647293-15.551184 5.293563l0 0c-7.058766 3.971451-10.147104 12.573363-18.750039 17.316387l0 0c-2.702552 1.545192-5.40408 2.316765-8.051373 2.75781l0 0C244.464269 672.686702 236.63393 669.929916 228.029972 668.384723L228.029972 668.384723z" p-id="20966" fill="#ffffff"></path><path d="M222.295364 687.361937c-0.606821-0.88209-0.330528-1.985214 0.330528-2.426259l0 0c16.158005-11.80179 33.143864-22.720468 52.886511-26.249851l0 0c3.143597-0.551562 6.396687-0.99363 9.761318-1.103124l0 0c17.866926-0.88209 40.036855 6.507204 56.912198 3.419889l0 0c1.433652-0.221034 2.867304-0.662079 4.191462-0.88209l0 0c12.021801-3.640923 20.018939-16.102746 32.757055-21.50785l0 0c20.37505-8.892531 35.55989-10.879792 45.771463-13.236466l0 0c0.88209-0.220011 1.820462 0.330528 2.095731 1.213641l0 0c0.221034 0.99363-0.441045 1.87572-1.378393 2.095731l0 0c-14.283308 3.529383-31.819706 7.169283-45.165666 12.904914l0 0c-11.360745 4.742001-19.412119 17.425881-33.088606 21.726837l0 0c-1.433652 0.442068-3.03308 0.772596-4.632507 0.99363l0 0c-18.143219 3.308349-40.4779-4.080945-57.242725-3.198855l0 0c-3.197832 0.109494-6.287193 0.441045-9.375531 1.103124l0 0c-18.914792 3.308349-35.404348 13.896498-51.3976 25.367761l0 0c-0.276293 0.220011-0.551562 0.220011-0.771573 0.220011l0 0C223.398488 688.133509 222.625892 687.802982 222.295364 687.361937L222.295364 687.361937z" p-id="20967" fill="#ffffff"></path><path d="M462.737528 554.643216c-19.35686 0.580215-40.147372-11.856026-57.46376-9.290597l0 0c-0.221034 0.109494-0.441045 0.109494-0.551562 0.109494l0 0c-10.036587 1.599428-15.551184 13.20679-24.705682 16.764825l0 0c-1.433652 0.467651-3.03308 0.798179-4.52199 1.103124l0 0c-14.504342 2.481518-29.66974-4.02671-43.676755-1.463328l0 0c-1.323135 0.249687-2.756787 0.580215-4.080945 1.047866l0 0c-0.88209 0.276293-1.87572-0.221034-2.206248-1.158383l0 0c-0.220011-0.88209 0.221034-1.791809 1.213641-2.122337l0 0c1.433652-0.551562 2.867304-0.964978 4.412496-1.130753l0 0c15.33015-2.647293 30.771841 3.833305 43.676755 1.462305l0 0c1.433652-0.275269 2.75781-0.661056 4.080945-1.102101l0 0c7.058766-2.095731 13.124925-14.449084 25.14775-16.738219l0 0c0.220011-0.164752 0.661056-0.164752 0.771573-0.164752l0 0c19.135826-2.508123 39.816844 10.036587 57.794287 9.209756l0 0c2.095731 0 3.970428-0.24764 5.845125-0.633427l0 0c12.739139-2.289136 23.216771-10.256598 36.56273-14.83487l0 0 0 0c0.88209-0.248663 1.874697 0.24764 2.205225 1.213641l0 0c0.330528 0.854461-0.109494 1.819438-1.102101 2.177596l0 0c-12.684904 4.191462-23.216771 12.408611-37.114293 14.779611l0 0c-0.110517 0.109494-0.221034 0.109494-0.385786 0.109494l0 0C466.872708 554.423205 464.833259 554.643216 462.737528 554.643216L462.737528 554.643216z" p-id="20968" fill="#ffffff"></path><path d="M297.075511 722.208583c-0.717338-0.441045-1.047866-1.432629-0.551562-2.426259l0 0c7.389294-12.573363 20.570501-18.308995 35.514865-20.844747l0 0c25.587771-4.632507 57.242725-0.331551 77.205383-3.971451l0 0c0.88209-0.220011 1.709945-0.220011 2.536776-0.441045l0 0c20.62576-4.632507 27.684526-10.589173 39.706327-27.132964l0 0c11.029194-15.441691 34.302247-40.918945 57.408501-45.219901l0 0c5.073552-0.88209 10.036587-0.772596 14.833847 0.771573l0 0c0.938372 0.330528 1.488911 1.324158 1.103124 2.206248l0 0c-0.276293 0.992607-1.267876 1.432629-2.15099 0.992607l0 0c-4.300956-1.213641-8.602935-1.324158-13.124925-0.442068l0 0c-21.286816 3.640923-44.614104 28.67611-55.202253 43.677778l0 0c-11.911284 16.653285-20.735253 23.934109-41.801035 28.456099l0 0c-0.88209 0.221034-1.709945 0.661056-2.536776 0.661056l0 0c-20.956288 3.6399-52.444443-0.661056-77.371158 3.6399l0 0c-14.503319 2.868327-26.526143 8.272407-33.143864 19.633153l0 0c-0.221034 0.221034-0.717338 0.772596-1.213641 0.772596l0 0C297.957601 722.540134 297.570791 722.540134 297.075511 722.208583L297.075511 722.208583z" p-id="20969" fill="#ffffff"></path><path d="M425.237449 718.128661c-0.551562 0.221034-0.88209 0.221034-1.433652 0.221034l0 0c-19.853164 3.197832-40.808428 5.624091-60.661591 8.492418l0 0c-0.992607 0-1.819438-0.661056-1.929955-1.765203l0 0c-0.165776-0.88209 0.496304-1.653663 1.433652-1.874697l0 0c19.908422-2.647293 40.974203-5.073552 60.71685-8.162914l0 0c0.385786 0 0.661056-0.220011 1.213641-0.220011l0 0c18.08796-3.419889 18.08796-12.794397 27.352975-27.352975l0 0c12.904914-18.97005 39.760562-19.633153 45.496194-40.257889l0 0c0.276293-0.992607 1.213641-1.432629 2.206248-1.102101l0 0c0.992607 0.109494 1.433652 1.213641 1.213641 1.984191l0 0c-7.390317 23.38357-35.239596 23.934109-45.938262 41.361013l0 0c-8.602935 13.345959-9.870812 25.146727-29.613458 28.67611l0 0L425.237449 718.127637 425.237449 718.128661z" p-id="20970" fill="#ffffff"></path><path d="M479.997634 710.738343c-0.385786-0.992607 0.110517-1.985214 1.047866-2.205225l0 0c9.650801-3.089361 12.849656-8.713452 15.937994-15.331173l0 0c3.03308-6.617721 5.734608-14.007015 14.44806-18.97005l0 0c2.813069-1.765203 5.955642-2.756787 9.045003-3.198855l0 0c5.183046-0.88209 10.588149-0.88209 15.219633-1.874697l0 0c2.977821-0.551562 5.625114-1.324158 7.665587-2.536776l0 0c4.136204-2.867304 4.964058-4.300956 5.680373-6.506181l0 0c0.717338-1.765203 0.937348-4.743024 3.03308-8.933463l0 0c6.342452-13.236466 14.283308-17.316387 23.49511-18.860557l0 0c5.126764-0.99363 10.751878-1.213641 17.204847-2.316765l0 0c2.536776-0.330528 5.294586-0.992607 8.051373-1.874697l0 0c13.56597-3.859911 18.252713-11.029194 21.671579-19.963681l0 0c3.6399-8.713452 5.461385-19.522636 12.794397-29.448706l0 0 0 0c0.661056-0.771573 1.765203-0.992607 2.536776-0.441045l0 0c0.718361 0.551562 0.829901 1.765203 0.166799 2.536776l0 0c-6.67298 9.154497-8.438183 19.412119-12.242835 28.67611l0 0c-3.585665 9.375531-9.485025 17.86795-23.989367 21.948895l0 0c-2.811022 0.88209-5.679349 1.544169-8.381901 1.984191l0 0c-6.618744 1.324158-12.242835 1.544169-17.260106 2.426259l0 0c-8.659217 1.654686-14.669094 4.301979-20.902052 16.875343l0 0c-1.874697 3.749394-1.985214 6.066159-2.922563 8.602935l0 0c-0.827855 2.756787-2.702552 5.293563-7.003508 8.051373l0 0c-2.647293 1.653663-5.79089 2.64627-9.045003 3.308349l0 0c-5.073552 0.771573-10.367115 0.88209-15.164375 1.765203l0 0c-2.922563 0.441045-5.569856 1.213641-7.996115 2.756787l0 0c-7.444553 4.412496-9.816576 10.918677-13.015432 17.537422l0 0c-3.088338 6.506181-7.169283 13.56597-17.922185 16.874319l0 0c-0.110517 0.330528-0.110517 0.330528-0.221034 0.330528l0 0C481.045499 711.951985 480.273926 711.400423 479.997634 710.738343L479.997634 710.738343z" p-id="20971" fill="#ffffff"></path><path d="M520.917602 725.959c-0.441045-0.88209-0.109494-1.985214 0.716314-2.536776l0 0c47.592948-24.26566 38.1069-43.787272 48.03297-61.544705l0 0c4.412496-7.941879 11.691273-10.698666 19.080567-12.022825l0 0c4.909823-0.88209 10.037611-1.213641 14.7264-2.095731l0 0c2.426259-0.330528 4.631484-0.88209 6.78145-1.544169l0 0c16.711614-6.396687 19.137873-14.778588 22.720468-31.985482l0 0c4.579295-23.27203 14.559601-29.668717 29.668717-45.440935l0 0 0.110517 0.109494c0.607844-0.661056 1.710968-0.661056 2.372024-0.109494l0 0c0.825808 0.661056 0.825808 1.765203 0 2.316765l0 0c-15.387455 16.322757-24.15412 21.50785-28.732391 43.566238l0 0c-3.25309 17.315364-6.838755 28.124548-24.926716 34.742269l0 0c-2.426259 0.771573-4.906753 1.433652-7.333012 1.874697l0 0c-5.019317 0.88209-10.147104 1.213641-14.7264 2.095731l0 0c-7.111978 1.324158-12.903891 3.419889-16.764825 10.368138l0 0c-8.822946 15.220656-0.771573 38.382169-49.411363 62.86784l0 0c-0.110517 0.221034-0.330528 0.221034-0.442068 0.221034l0 0C522.020726 727.062124 521.192871 726.621079 520.917602 725.959L520.917602 725.959z" p-id="20972" fill="#ffffff"></path><path d="M809.116443 361.628224c-9.705036-14.145162-22.663162-22.224164-33.251312-26.91193l0 0c-10.534937-4.549619-18.529005-5.542226-18.529005-5.625114l0 0 0 0.082888c-0.99363-0.220011-1.490957-1.075495-1.433652-2.012843l0 0c0.109494-0.964978 0.992607-1.571798 1.874697-1.461281l0 0c0.221034 0 33.749662 4.356214 54.208623 33.970696l0 0c0.551562 0.717338 0.497327 1.820462-0.441045 2.427282l0 0c-0.221034 0.110517-0.442068 0.24764-0.715291 0.24764l0 0C810.22059 362.455055 809.558511 362.207415 809.116443 361.628224L809.116443 361.628224z" p-id="20973" fill="#ffffff"></path></svg>