<svg t="1600346214327" class="icon" viewBox="0 0 1261 1024" version="1.1" xmlns="http://www.w3.org/2000/svg" p-id="22493" width="200" height="200"><path d="M1139.370667 512c-3.868444 67.356444-0.910222 138.808889-16.839111 207.758222-15.018667 68.494222-48.924444 134.712889-98.986667 184.547556-49.834667 50.289778-115.825778 84.195556-184.547556 98.986666-68.949333 15.928889-140.401778 12.970667-207.758222 16.839112-67.356444-3.868444-138.808889-0.910222-207.758222-16.839112-68.494222-15.018667-134.712889-48.924444-184.547556-98.986666-50.289778-49.834667-84.195556-115.825778-98.986666-184.547556-16.384-68.721778-13.198222-140.401778-17.066667-207.758222 3.868444-67.356444 0.910222-139.036444 16.839111-207.758222 15.018667-68.494222 48.924444-134.712889 98.986667-184.547556 49.834667-50.289778 115.825778-84.195556 184.547555-98.986666 68.949333-15.928889 140.401778-12.970667 207.758223-16.839112 67.356444 3.868444 138.808889 0.910222 207.758222 16.839112 68.494222 15.018667 134.712889 48.924444 184.547555 98.986666 50.289778 49.834667 84.195556 115.825778 98.986667 184.547556 16.156444 68.721778 13.198222 140.401778 17.066667 207.758222z m-430.535111 167.480889c-20.48 15.018667-48.924444 6.371556-72.362667 19.797333-7.281778 4.096-13.198222 9.329778-17.066667 15.246222-20.252444 30.72-38.912 62.577778-58.936889 93.297778-11.832889 18.204444-7.281778 34.133333 7.736889 45.283556 15.928889 11.832889 35.498667 11.605333 48.241778-5.688889 36.181333-48.924444 71.224889-98.531556 106.496-147.911111 9.784889-13.653333 1.137778-18.204444-14.108444-20.024889z m213.902222-263.054222c-12.970667-29.809778-38.229333-15.701333-59.164445-16.839111-19.797333-1.137778-40.049778 21.390222-56.888889 6.371555-14.336-12.970667-22.983111-34.133333-29.582222-53.248-8.647111-24.576-28.216889-42.097778-44.145778-67.811555 55.978667 21.617778 89.656889 1.365333 105.813334-25.031112 18.887111-30.492444 13.653333-70.542222-11.832889-93.980444-25.713778-23.665778-64.625778-27.306667-93.297778-8.647111-36.636444 24.120889-41.870222 54.840889-17.066667 115.825778-39.822222-12.515556-72.590222-31.402667-107.633777-45.056-13.880889-5.461333-27.079111-19.114667-43.463111-12.743111-43.008 17.521778-85.560889 35.726222-127.431112 55.978666-25.713778 12.515556-31.175111 30.264889-20.48 50.062222 8.874667 16.156444 31.175111 21.390222 53.020445 11.605334 18.887111-8.192 37.774222-16.384 55.978667-25.941334 30.264889-16.384 57.799111-16.611556 87.381333 3.868445 19.342222 13.425778 16.611556 21.617778 2.275555 35.043555-32.085333 30.72-66.673778 58.936889-93.525333 94.890667-19.797333 26.168889-18.887111 53.248 4.778667 76.003556 29.127111 27.761778 59.619556 54.385778 89.201778 81.692444 9.102222 8.419556 17.066667 17.066667-4.323556 20.935111-28.899556 5.233778-57.116444 12.970667-86.016 19.114667-20.935111 4.323556-38.229333 23.893333-34.588444 40.96 4.323556 20.252444 29.354667 33.223111 50.744888 28.216889 56.888889-13.425778 113.777778-26.851556 171.121778-38.684445 29.354667-6.144 43.008-35.498667 25.486222-58.936889-16.384-21.845333-34.133333-43.008-50.062222-65.308444-37.091556-52.337778-36.864-52.565333 10.012445-98.304 26.396444-25.713778 26.168889-25.713778 46.193777 7.964444 8.647111 14.563556 16.156444 32.085333 37.546667 30.492445 42.325333-3.413333 83.512889-14.108444 124.245333-25.258667 16.384-4.551111 22.528-27.989333 15.701334-43.235555z m-375.921778 155.192889c-12.515556-12.970667-23.893333-28.216889-46.876444-27.534223-44.373333 1.820444-88.746667 0.910222-133.347556 0.227556-15.701333-0.227556-30.264889 3.413333-29.582222 20.252444 0.455111 16.156444 15.473778 20.252444 30.947555 19.797334 27.079111-0.682667 53.930667-0.227556 81.009778-0.227556v-0.227555c29.582222 0 59.164444 0.227556 88.746667 0 7.964444-0.227556 19.569778-1.365333 9.102222-12.288z m-189.326222-68.949334c17.521778-0.682667 34.816-0.227556 52.337778-0.227555 15.701333 0 31.402667 0.910222 47.104-0.227556 7.964444-0.455111 21.162667 6.144 21.617777-10.24 0.227556-12.060444-2.958222-24.348444-16.611555-25.941333-36.408889-4.323556-73.045333-4.778667-109.226667 0.227555-8.874667 1.365333-18.887111 8.419556-15.701333 20.252445 2.275556 9.557333 8.419556 16.611556 20.48 16.156444z m8.192-74.638222c27.989333 0 55.978667-2.275556 83.512889 0.682667 33.905778 3.640889 58.709333-7.736889 81.009777-39.822223-57.799111 0-111.502222 0.227556-165.205333-0.227555-14.563556 0-28.216889 2.275556-27.761778 18.887111 0.682667 15.246222 13.653333 20.48 28.444445 20.48z m0 0" fill="#ffffff" p-id="22494"></path></svg>