<svg t="1600346237657" class="icon" viewBox="0 0 1024 1024" version="1.1" xmlns="http://www.w3.org/2000/svg" p-id="22837" width="200" height="200"><path d="M512.512 70.144c-238.08 0-432.128 194.048-432.128 432.128s194.048 432.128 432.128 432.128 432.128-194.048 432.128-432.128-193.536-432.128-432.128-432.128z m250.88 606.208c0 8.704-3.072 15.872-8.704 22.016-5.632 6.144-13.312 9.216-21.504 9.216h-22.016v52.736c0 7.168-5.632 13.312-12.8 13.312h-79.872c-7.168 0-12.8-6.144-12.8-13.312v-52.736H419.84v52.736c0 7.168-5.632 13.312-12.8 13.312H328.192c-7.168 0-13.312-5.632-13.312-12.288v-53.76h-22.016c-8.192 0-15.872-3.072-21.504-9.216-5.632-5.632-9.216-13.824-8.704-22.016v-414.72c0-8.704 3.072-15.872 8.704-21.504s13.312-9.216 21.504-8.704h439.808c8.704 0 15.872 3.072 21.504 9.216 5.632 5.632 9.216 13.312 8.704 21.504v414.208z" fill="#ffffff" p-id="22838"></path><path d="M615.424 366.08c-13.312-13.312-28.672-23.552-46.08-31.232-17.92-7.68-36.864-11.776-56.832-11.776h-7.68c-18.432 0.512-36.864 5.12-53.76 13.312-16.384 8.192-31.232 18.944-43.52 31.744-12.288 13.312-22.528 28.16-29.184 45.568-7.168 16.896-10.752 35.328-10.752 54.784 0 19.456 3.584 38.912 11.776 56.832 7.168 17.408 17.92 32.768 31.232 46.08 13.312 13.312 29.184 24.064 46.08 31.232 17.92 7.68 36.864 11.776 56.32 11.776s38.912-3.584 56.832-11.776c17.408-7.68 32.768-17.92 46.08-31.232 13.312-13.312 24.064-28.672 30.72-46.08 7.68-17.92 11.776-36.864 11.776-56.832 0-19.968-4.096-38.912-11.776-56.832-7.68-16.896-17.92-32.256-31.232-45.568z m-89.6-15.36c22.528 2.56 43.52 11.264 60.928 25.6l-41.984 41.984s-0.512 0.512-0.512 1.024c-2.56-2.048-5.632-3.584-9.216-5.12-3.072-1.536-6.656-2.56-9.728-3.072V350.72z m-58.88 8.192c10.24-4.608 20.992-7.168 32.256-8.192v60.928c-3.072 1.024-6.144 1.536-9.216 3.072-3.072 1.024-6.144 2.56-8.704 4.096-0.512 0-0.512 0-1.024-0.512l-41.984-41.984c8.704-7.168 18.432-12.8 28.672-17.408zM403.456 422.912c4.096-10.24 9.728-19.968 16.896-28.16l40.96 41.472c0.512 0 0.512 0 1.024 0.512l0.512 0.512c-3.072 5.632-5.632 12.288-7.68 18.432H395.264c1.024-11.264 3.584-22.528 8.192-32.768z m0 92.16c-4.096-10.24-7.168-20.992-8.192-32.256h59.392l3.072 9.216c1.536 3.072 2.56 5.632 4.096 8.704 0 0.512 0 0.512-0.512 1.024 0 0-0.512 0.512-1.024 0.512l-40.96 41.472c-6.144-9.216-11.776-18.432-15.872-28.672z m95.744 72.192c-11.776-1.024-22.528-4.096-32.768-8.192-10.24-4.608-19.456-10.24-28.16-16.896l41.984-41.984s0.512-0.512 1.024-0.512c2.56 1.536 5.632 3.072 8.704 4.096 3.072 1.536 6.144 2.56 9.216 3.072v60.416z m-10.24-94.72a32.8704 32.8704 0 0 1-9.728-23.552c0-8.704 3.072-17.408 9.728-23.552 6.144-6.144 14.848-9.728 23.552-9.728 8.704 0 17.408 3.072 23.552 9.728 6.144 6.144 9.728 14.848 9.728 23.552 0 8.704-3.072 17.408-9.728 23.552-6.144 6.144-14.848 9.728-23.552 9.728-9.216 0-16.896-3.072-23.552-9.728z m69.12 86.528c-10.24 4.608-20.992 7.168-32.256 8.192v-60.416l9.216-3.072c3.072-1.536 6.144-2.56 8.704-4.096 0.512 0 0.512 0 1.024 0.512l0.512 0.512 41.472 42.496c-8.704 5.632-18.432 11.264-28.672 15.872z m64-64c-4.096 10.24-9.728 19.456-16.896 28.16l-40.96-41.472c-0.512 0-0.512 0-1.024-0.512 0 0-0.512-0.512-0.512-1.024 1.536-2.56 3.072-5.632 4.096-8.704 1.536-3.072 2.56-6.144 3.072-9.216h60.416c-1.024 11.776-4.096 22.528-8.192 32.768zM570.368 455.68c-1.024-3.584-2.048-6.656-3.072-9.728-1.536-3.072-2.56-6.144-4.096-8.704l0.512-0.512c0-0.512 0.512-0.512 1.024-0.512l40.96-41.472c7.168 8.704 12.8 17.92 16.896 28.16 4.096 10.752 7.168 21.504 8.704 32.768h-60.928z" fill="#ffffff" p-id="22839"></path></svg>